<?xml version="1.0" standalone="no"?>
<!DOCTYPE svg PUBLIC "-//W3C//DTD SVG 1.1//EN" "http://www.w3.org/Graphics/SVG/1.1/DTD/svg11.dtd" >
<svg xmlns="http://www.w3.org/2000/svg">
<metadata></metadata>
<defs>
<font id="futurats-lightregular" horiz-adv-x="1116" >
<font-face units-per-em="2048" ascent="1638" descent="-410" />
<missing-glyph horiz-adv-x="593" />
<glyph horiz-adv-x="2048" />
<glyph horiz-adv-x="2048" />
<glyph unicode="&#xd;" horiz-adv-x="2048" />
<glyph unicode=" "  horiz-adv-x="593" />
<glyph unicode="&#x09;" horiz-adv-x="593" />
<glyph unicode="&#xa0;" horiz-adv-x="593" />
<glyph unicode="!" horiz-adv-x="360" d="M90 82q0 41 30.5 70.5t72.5 29.5q41 0 70.5 -29.5t29.5 -70.5t-29.5 -70.5t-70.5 -29.5q-42 0 -72.5 29.5t-30.5 70.5zM129 350v1125h125v-1125h-125z" />
<glyph unicode="&#x22;" horiz-adv-x="694" d="M123 1544h160l-17 -416h-127zM414 1544h157l-16 -416h-125z" />
<glyph unicode="#" d="M47 391v123h189l81 274h-172v121h211l136 439h155l-135 -439h252l135 439h156l-135 -439h153v-121h-192l-82 -274h174v-123h-213l-121 -391h-158l121 391h-250l-121 -391h-157l121 391h-148zM391 514h252l80 274h-250z" />
<glyph unicode="$" horiz-adv-x="1040" d="M27 213l94 94q57 -104 132.5 -154t199.5 -67v635q-182 78 -266.5 171t-84.5 234q0 154 99.5 261t251.5 114v115h102v-113q117 0 198 -40.5t154 -129.5l-84 -96q-68 85 -125 117t-135 32h-8v-544q107 -37 182 -77.5t130 -92.5t81.5 -118.5t26.5 -150.5q0 -184 -114.5 -302 t-305.5 -132v-129h-102v125q-147 8 -248.5 66t-177.5 182zM244 1126q0 -91 47.5 -146t161.5 -106l2 494q-94 -15 -152.5 -82t-58.5 -160zM555 100q122 5 199 87t77 206q0 99 -73.5 178.5t-202.5 120.5v-592z" />
<glyph unicode="%" horiz-adv-x="1660" d="M74 1135q0 159 111 271t270 112q156 0 266 -112t110 -271q0 -160 -109.5 -272.5t-266.5 -112.5q-159 0 -269 112.5t-112 272.5zM188 1135q0 -117 77.5 -198t189.5 -81q110 0 187 81t77 198q0 114 -77 194t-187 80q-112 0 -189.5 -80t-77.5 -194zM291 0l995 1532l88 -55 l-993 -1530zM827 344q0 157 112 270t267 113q157 0 268 -112.5t111 -268.5q0 -158 -110.5 -269.5t-268.5 -111.5q-156 0 -267.5 111.5t-111.5 267.5zM940 344q0 -115 77.5 -193.5t188.5 -78.5q114 0 190.5 78.5t76.5 195.5q0 115 -77 195t-190 80q-110 0 -188 -81t-78 -196z " />
<glyph unicode="&#x26;" horiz-adv-x="1308" d="M76 354q0 128 66 220t220 200l82 57q-20 28 -57 76.5t-51.5 69.5t-33.5 56t-25.5 68t-6.5 75q0 140 92.5 232.5t231.5 92.5q135 0 227 -85.5t92 -211.5q0 -80 -33 -145.5t-92.5 -121t-164.5 -126.5l340 -401l208 215l78 -90l-213 -211l273 -324h-156l-213 252l-133 -119 q-95 -85 -178 -122.5t-172 -37.5q-161 0 -271 110t-110 271zM201 356q0 -113 73 -189.5t183 -76.5q65 0 132.5 33t151.5 106l123 109l-346 403l-98 -65q-126 -84 -171.5 -156t-47.5 -164zM397 1180q0 -66 35.5 -132.5t118.5 -152.5q140 100 191 163t51 138q0 82 -57 137.5 t-142 55.5q-86 0 -141.5 -59t-55.5 -150z" />
<glyph unicode="'" horiz-adv-x="385" d="M123 1544h160l-17 -416h-127z" />
<glyph unicode="(" horiz-adv-x="593" d="M164 625q0 192 46.5 421t141.5 457l43 103h123l-57 -160q-67 -190 -110.5 -420.5t-43.5 -396.5q0 -164 49 -404.5t133 -462.5l29 -79h-125l-26 71q-104 279 -153.5 489t-49.5 382z" />
<glyph unicode=")" horiz-adv-x="593" d="M76 -317l28 79q84 222 133.5 462.5t49.5 404.5q0 166 -43.5 396.5t-110.5 420.5l-57 160h123l43 -103q95 -228 141.5 -457t46.5 -421q0 -172 -49.5 -382t-153.5 -489l-26 -71h-125z" />
<glyph unicode="*" horiz-adv-x="864" d="M82 1233l51 149l162 -73q20 -9 44.5 -22.5t38.5 -22.5l15 -9q-14 62 -18 107l-19 180h154l-18 -170l-19 -117q52 33 105 58l153 69l51 -149l-172 -37q-24 -5 -52.5 -8.5t-45.5 -4.5l-16 -1q41 -35 84 -82l116 -129l-125 -92l-88 147q-13 22 -25.5 48.5t-19.5 42.5l-6 16 q-24 -60 -51 -105l-88 -149l-123 92l115 131q16 17 37 37t34 31l13 12q-60 4 -111 14z" />
<glyph unicode="+" d="M94 428v127h395v381h138v-381h395v-127h-395v-377h-138v377h-395z" />
<glyph unicode="," horiz-adv-x="348" d="M-16 -238l149 508h164l-225 -508h-88z" />
<glyph unicode="-" horiz-adv-x="563" d="M51 408v110h461v-110h-461z" />
<glyph unicode="." horiz-adv-x="301" d="M51 82q0 42 29.5 71t71.5 29q41 0 69.5 -29.5t28.5 -70.5t-28.5 -70.5t-69.5 -29.5q-42 0 -71.5 29t-29.5 71z" />
<glyph unicode="/" horiz-adv-x="976" d="M-119 -465l977 2114h139l-974 -2114h-142z" />
<glyph unicode="0" horiz-adv-x="1200" d="M66 735q0 359 140.5 563.5t393.5 204.5q257 0 396 -204t139 -564q0 -359 -138.5 -564.5t-396.5 -205.5q-255 0 -394.5 205.5t-139.5 564.5zM203 735q0 -312 100 -481.5t297 -169.5q198 0 298.5 171.5t100.5 479.5q0 311 -101 481t-298 170q-94 0 -178.5 -51.5 t-128.5 -134.5q-90 -169 -90 -465z" />
<glyph unicode="1" horiz-adv-x="1200" d="M346 1370v107h336v-1477h-131v1370h-205z" />
<glyph unicode="2" horiz-adv-x="1200" d="M98 1055q3 211 133 337t342 126q211 0 351.5 -135t140.5 -336q0 -218 -195 -416l-518 -525h735v-106h-985l643 686q99 106 140.5 188.5t40.5 174.5q0 155 -101.5 257.5t-253.5 102.5q-150 0 -243 -98.5t-95 -255.5h-135z" />
<glyph unicode="3" horiz-adv-x="1200" d="M104 365h136q17 -136 110 -213.5t240 -77.5q152 0 251 94t99 240q0 151 -98.5 235.5t-278.5 87.5h-12v105h29q151 0 234 74t83 208q0 127 -85.5 206t-221.5 79q-135 0 -215 -69.5t-92 -196.5h-129q22 183 134 277.5t304 94.5q195 0 317.5 -106.5t122.5 -276.5 q0 -122 -65.5 -211t-180.5 -124q132 -32 211.5 -137.5t79.5 -247.5q0 -196 -135 -318.5t-350 -122.5q-207 0 -336.5 105.5t-151.5 294.5z" />
<glyph unicode="4" horiz-adv-x="1200" d="M25 330l907 1204v-1100h215v-106h-217v-328h-127v330h-778zM217 412q64 20 109 20h481v690q0 70 10 119q-30 -71 -53 -102l-467 -652q-18 -27 -80 -75z" />
<glyph unicode="5" horiz-adv-x="1200" d="M94 223l49 121q76 -128 186.5 -198t235.5 -70q170 0 284 110.5t114 274.5q0 169 -113.5 276t-292.5 107q-82 0 -153.5 -23.5t-159.5 -79.5l188 736h602v-111h-504l-137 -469q99 51 209 51q217 0 356.5 -136.5t139.5 -348.5q0 -216 -149 -359t-374 -143q-297 0 -481 262z " />
<glyph unicode="6" horiz-adv-x="1200" d="M84 465q0 98 33.5 188t111.5 215l379 607h158l-416 -629q126 102 297 102q195 0 332 -139t137 -338q0 -214 -148 -359t-366 -145q-221 0 -369.5 143t-148.5 355zM221 457q0 -160 109.5 -269.5t269.5 -109.5q165 0 275 111t110 276q0 163 -109 273t-270 110 q-163 0 -274 -112.5t-111 -278.5z" />
<glyph unicode="7" horiz-adv-x="1200" d="M115 0l755 1303q25 43 58 71q-49 -10 -99 -10h-712v113h997l-850 -1477h-149z" />
<glyph unicode="8" horiz-adv-x="1200" d="M137 399q0 140 79 245t218 149q-114 38 -177.5 125.5t-63.5 205.5q0 163 118.5 274t290.5 111q168 0 287 -112t119 -271q0 -120 -64 -207.5t-178 -125.5q140 -44 218.5 -148t78.5 -246q0 -183 -135.5 -310.5t-327.5 -127.5q-195 0 -329 127.5t-134 310.5zM274 406l2 -15 q5 -134 98 -224.5t226 -90.5q137 0 229.5 95.5t92.5 236.5q0 133 -95 229t-227 96q-135 0 -230.5 -96.5t-95.5 -230.5zM324 1122q0 -119 79.5 -199.5t196.5 -80.5q116 0 196.5 81t80.5 199q0 117 -80 198t-197 81t-196.5 -81t-79.5 -198z" />
<glyph unicode="9" horiz-adv-x="1200" d="M86 1004q0 140 67.5 255t185.5 181.5t261 66.5q144 0 262 -66.5t185 -183t67 -258.5q0 -91 -33 -183t-108 -212l-389 -604h-154l416 625q-116 -101 -293 -101q-197 0 -332 139t-135 341zM215 1001q0 -158 110.5 -267t270.5 -109t270.5 112t110.5 273t-109.5 273 t-269.5 112q-163 0 -273 -113.5t-110 -280.5z" />
<glyph unicode=":" horiz-adv-x="339" d="M88 82q0 41 29.5 70.5t70.5 29.5q43 0 73 -29.5t30 -70.5t-30 -70.5t-73 -29.5q-41 0 -70.5 29.5t-29.5 70.5zM88 694q0 41 29.5 71t70.5 30t71 -30t30 -71t-30 -70.5t-71 -29.5t-70.5 29.5t-29.5 70.5z" />
<glyph unicode=";" horiz-adv-x="382" d="M20 -238l148 508h166l-228 -508h-86zM131 694q0 42 29.5 71.5t72.5 29.5q41 0 70 -30t29 -71t-29 -70.5t-70 -29.5q-43 0 -72.5 29.5t-29.5 70.5z" />
<glyph unicode="&#x3c;" d="M102 410v170l912 358v-154q-325 -119 -526 -191.5t-240 -85.5l-39 -13l805 -293v-154z" />
<glyph unicode="=" d="M94 256v127h928v-127h-928zM94 606v127h928v-127h-928z" />
<glyph unicode="&#x3e;" d="M102 47v154l805 293q-75 23 -805 290v154l912 -358v-170z" />
<glyph unicode="?" horiz-adv-x="913" d="M20 1073q2 197 120 321t306 124t313.5 -125t125.5 -310q0 -172 -100.5 -283.5t-272.5 -131.5v-316h-127v422q25 -2 59 -2q132 0 224 90.5t92 222.5q0 134 -90.5 225t-225.5 91q-132 0 -216.5 -88.5t-84.5 -227.5v-12h-123zM348 82q0 41 28.5 70.5t69.5 29.5 q43 0 73 -29.5t30 -70.5t-30 -70.5t-73 -29.5q-41 0 -69.5 29.5t-28.5 70.5z" />
<glyph unicode="@" horiz-adv-x="2441" d="M217 385q0 137 34.5 269.5t99 250.5t161.5 217.5t216 171t269.5 112t315.5 40.5q182 0 333.5 -40.5t257 -111.5t178.5 -168.5t107.5 -211t34.5 -240.5q0 -8 -1 -25.5t-1 -25.5q-8 -176 -74.5 -315t-193.5 -223.5t-297 -84.5h-125l10 213q-124 -233 -381 -233 q-204 0 -315 124.5t-111 319.5q0 144 55.5 261.5t166 189t257.5 71.5q134 0 228 -63.5t129 -165.5l10 198h115l-43 -823q117 0 208.5 44t147.5 122.5t84.5 180.5t28.5 223q0 142 -48 264.5t-144 220t-255 153.5t-366 56q-179 0 -337 -52t-275.5 -143t-202.5 -212.5 t-128.5 -264.5t-43.5 -295q0 -148 42 -274t116.5 -218t174.5 -157t218.5 -97t246.5 -32q100 0 195.5 10t160.5 24.5t116 29t76 24.5l24 10l14 -88q-9 -4 -26.5 -11t-76.5 -24t-123 -30t-164 -24t-202 -11q-188 0 -351.5 59t-285 167.5t-191 273t-69.5 364.5zM860 436 q0 -98 35 -176t109.5 -127t179.5 -49q153 0 256.5 110.5t111.5 268.5v26q0 152 -90 253.5t-237 101.5q-113 0 -198 -58.5t-126 -150t-41 -199.5z" />
<glyph unicode="A" horiz-adv-x="1210" d="M-59 0l665 1524l666 -1524h-146l-182 440h-674l-186 -440h-143zM322 553h571l-246 590q-24 55 -30.5 80.5t-10.5 85.5q-1 -15 -2 -25t-3 -21t-2.5 -16.5t-3.5 -16t-3.5 -13.5t-5 -15t-5.5 -16t-7 -20t-9 -23z" />
<glyph unicode="B" horiz-adv-x="1122" d="M141 0v1477l379 -2q189 -2 297.5 -99t108.5 -268q0 -241 -226 -332q170 -15 266.5 -115.5t96.5 -259.5q0 -89 -27 -160.5t-83.5 -126.5t-152.5 -84.5t-225 -29.5h-434zM274 109h271q203 0 291 77t88 222q0 299 -406 299h-244v-598zM276 817h236q126 0 201 75.5t75 201.5 t-81 199t-220 73h-211v-549z" />
<glyph unicode="C" horiz-adv-x="1372" d="M74 733q0 214 103 392t281.5 281t393.5 103q133 0 223.5 -33.5t227.5 -132.5l20 -14v-170q-116 117 -231.5 171t-251.5 54q-129 0 -246 -51t-201 -138t-134 -207t-50 -253q0 -176 84.5 -324.5t230.5 -234.5t320 -86q139 0 255 53t224 164v-160l-18 -12 q-156 -106 -239 -136t-222 -30q-159 0 -302 59.5t-245.5 161.5t-162.5 243.5t-60 299.5z" />
<glyph unicode="D" horiz-adv-x="1341" d="M141 0v1477h400q216 0 381 -91.5t255.5 -258.5t90.5 -384q0 -216 -86 -383t-254.5 -263.5t-397.5 -96.5h-389zM276 117h236q189 0 330.5 83t213.5 222.5t72 314.5q0 282 -161 452.5t-428 170.5h-263v-1243z" />
<glyph unicode="E" horiz-adv-x="964" d="M141 0v1477h729v-117h-596v-516h592v-117h-592v-610h596v-117h-729z" />
<glyph unicode="F" horiz-adv-x="835" d="M141 0v1477h662v-117h-529v-518h525v-117h-525v-725h-133z" />
<glyph unicode="G" horiz-adv-x="1634" d="M74 731q0 216 102.5 395t280 282t391.5 103q398 0 647 -348l-100 -92q-113 163 -247 241.5t-300 78.5q-175 0 -321 -87.5t-230 -238.5t-84 -332q0 -184 82.5 -332t228.5 -231.5t326 -83.5q243 0 405.5 147t174.5 377h-482v119h629v-4q0 -226 -90.5 -399t-256 -267 t-382.5 -94q-163 0 -307 59t-246.5 160.5t-161.5 243.5t-59 303z" />
<glyph unicode="H" horiz-adv-x="1390" d="M141 0v1475h133v-633h840v633h135v-1475h-133v731h-844v-731h-131z" />
<glyph unicode="I" horiz-adv-x="415" d="M141 0v1475h133v-1475h-133z" />
<glyph unicode="J" horiz-adv-x="702" d="M-47 160l113 80q13 -70 63.5 -113t116.5 -43q45 0 75 10.5t56 40t38.5 89t12.5 151.5v1100h133v-1135q0 -371 -309 -371q-106 0 -182.5 49t-116.5 142z" />
<glyph unicode="K" horiz-adv-x="1134" d="M141 0v1475h133v-639q0 -45 -16 -127q27 49 70 94l628 674h166l-667 -715l737 -762h-182l-633 672l-105 -109v-563h-131z" />
<glyph unicode="L" horiz-adv-x="714" d="M141 0v1475h133v-1358h431v-117h-564z" />
<glyph unicode="M" horiz-adv-x="1812" d="M45 0l272 1536l539 -1182q11 -18 17.5 -31.5t8.5 -18.5l1 -5q13 -32 24 -106q6 59 13 83t34 80l545 1180l270 -1536h-139l-176 1110q-2 10 -2 31q0 13 4 67q-23 -100 -43 -145l-506 -1110l-504 1112q-22 51 -47 143q6 -50 6 -67q0 -7 -1 -17t-1 -14l-176 -1110h-139z" />
<glyph unicode="N" horiz-adv-x="1622" d="M141 0v1530l1121 -1176q61 -64 98 -147q-12 98 -12 117v1151h131v-1524l-1121 1179q-32 36 -108 152q24 -73 24 -115v-1167h-133z" />
<glyph unicode="O" horiz-adv-x="1689" d="M74 737q0 214 102 391t279 279t391 102t391 -102t279 -279t102 -391q0 -215 -102 -392.5t-279 -279.5t-391 -102t-391 102t-279 279.5t-102 392.5zM209 737q0 -177 85 -327t231.5 -237t320.5 -87t320 87t230.5 237t84.5 327q0 133 -50 253t-135 207t-202.5 138t-247.5 51 q-174 0 -320.5 -86.5t-231.5 -236t-85 -326.5z" />
<glyph unicode="P" horiz-adv-x="970" d="M141 0v1477h379q189 0 302.5 -110t113.5 -292q0 -187 -111.5 -295t-328.5 -108h-222v-672h-133zM274 780h199q157 0 241.5 76.5t84.5 220.5q0 134 -82 211.5t-223 77.5h-220v-586z" />
<glyph unicode="Q" horiz-adv-x="1689" d="M74 737q0 160 60 303.5t162.5 246.5t246 163.5t303.5 60.5q159 0 302.5 -60.5t246 -163.5t163 -246.5t60.5 -303.5q0 -164 -55 -298.5t-197 -278.5l166 -164l-102 -98l-164 188q-198 -123 -428 -123q-156 0 -297.5 61t-244 164.5t-162.5 247t-60 301.5zM209 737 q0 -177 85 -327t231.5 -237t320.5 -87q190 0 338 107l-336 382l108 80l328 -397q109 128 153 233t44 240q0 180 -84.5 330.5t-230.5 237.5t-320 87t-320.5 -86.5t-231.5 -236t-85 -326.5z" />
<glyph unicode="R" horiz-adv-x="1007" d="M141 0v1477h346q195 0 315 -110t120 -290q0 -173 -111 -279.5t-303 -115.5l483 -682h-166l-460 672h-91v-672h-133zM274 774h152q162 0 256 80t94 217q0 128 -84 209.5t-217 81.5h-201v-588z" />
<glyph unicode="S" horiz-adv-x="999" d="M27 213l94 94q62 -106 155 -162.5t197 -56.5q136 0 227 88.5t91 220.5q0 119 -76 189q-38 36 -89.5 63.5t-179.5 79.5q-183 74 -263.5 166.5t-80.5 230.5q0 163 115.5 274t284.5 111q112 0 199.5 -43t164.5 -135l-84 -96q-60 80 -125.5 117t-148.5 37 q-115 0 -189.5 -73.5t-74.5 -187.5q0 -38 4.5 -64t20.5 -56.5t45.5 -56t80 -53.5t123.5 -58q77 -32 131 -58t104 -57t81 -62t55 -70.5t34.5 -86.5t10.5 -105q0 -189 -132 -314.5t-331 -125.5q-140 0 -254.5 64.5t-189.5 185.5z" />
<glyph unicode="T" horiz-adv-x="851" d="M-10 1360v117h874v-117h-372v-1360h-134v1360h-368z" />
<glyph unicode="U" horiz-adv-x="1376" d="M141 571v904h133v-938q0 -201 114.5 -326t297.5 -125q186 0 301 124.5t115 326.5v938h133v-904q0 -170 -35 -268q-54 -153 -194 -246.5t-318 -93.5q-228 0 -385 148q-88 85 -125 190t-37 270z" />
<glyph unicode="V" horiz-adv-x="1083" d="M-63 1475h145l420 -1102q29 -74 33.5 -93t7.5 -87q3 94 20 129l17 51l421 1102h146l-604 -1526z" />
<glyph unicode="W" horiz-adv-x="1873" d="M-45 1475h145l361 -1088q22 -65 28 -172q2 82 29 174l420 1145l420 -1145q20 -72 26 -174q11 135 29 172l361 1088h143l-522 -1534l-418 1140q-35 99 -41 195q-4 -96 -39 -195l-418 -1140z" />
<glyph unicode="X" horiz-adv-x="1142" d="M8 0l484 772l-431 705h162l322 -555q14 -25 26 -68q12 43 27 68l324 553h159l-430 -703l479 -772h-159l-373 625q-17 26 -27 73q-11 -46 -26 -73l-377 -625h-160z" />
<glyph unicode="Y" horiz-adv-x="937" d="M-74 1475h158l332 -555q42 -70 53 -136q19 79 53 136l332 555h158l-473 -777v-698h-138v698z" />
<glyph unicode="Z" horiz-adv-x="1118" d="M25 0l796 1278q20 30 72 96q-56 -10 -113 -10h-704v113h1016l-795 -1280q-15 -25 -84 -105q41 12 63 15.5t68 3.5h727v-111h-1046z" />
<glyph unicode="[" horiz-adv-x="593" d="M164 -317q6 223 6 262v1403q0 37 -6 260h377v-113h-242q4 -160 4 -178v-1342q0 -22 -4 -178h242v-114h-377z" />
<glyph unicode="\" horiz-adv-x="976" d="M-20 1649h139l977 -2114h-142z" />
<glyph unicode="]" horiz-adv-x="593" d="M53 -203h242q-4 156 -4 178v1342q0 18 4 178h-242v113h377q-6 -223 -6 -260v-1403q0 -39 6 -262h-377v114z" />
<glyph unicode="^" d="M92 1008l379 536h174l379 -536h-195l-268 415l-272 -415h-197z" />
<glyph unicode="_" horiz-adv-x="1075" d="M0 -356h1075v-129h-1075v129z" />
<glyph unicode="`" horiz-adv-x="393" d="M-12 1280l100 74l240 -312l-76 -34z" />
<glyph unicode="a" horiz-adv-x="1159" d="M74 459q0 133 60 245.5t163 178t225 65.5q129 0 223.5 -66.5t149.5 -189.5v221h121v-913h-123v238q-40 -122 -139 -191.5t-234 -69.5q-124 0 -226.5 64t-161 174.5t-58.5 243.5zM201 463q0 -155 101.5 -264t244.5 -109q145 0 247.5 109.5t102.5 263.5t-102.5 263.5 t-245.5 109.5q-142 0 -245 -110.5t-103 -262.5z" />
<glyph unicode="b" horiz-adv-x="1159" d="M141 0v1683h127v-993q38 120 137 189t230 69q190 0 321 -141.5t131 -345.5q0 -133 -59 -243.5t-163 -174t-230 -63.5q-131 0 -230.5 69t-140.5 189v-238h-123zM262 457q0 -155 99 -261t245 -106t247 108t101 265t-100.5 265t-245.5 108q-148 0 -247 -109t-99 -270z" />
<glyph unicode="c" horiz-adv-x="880" d="M74 459q0 206 138 348.5t337 142.5q156 0 280 -104v-154q-91 137 -266 137q-152 0 -253 -105t-101 -263q0 -157 98.5 -265t243.5 -108q154 0 278 133v-141q-131 -107 -286 -107q-131 0 -238.5 64.5t-169 176t-61.5 245.5z" />
<glyph unicode="d" horiz-adv-x="1159" d="M74 463q0 201 132.5 343t319.5 142q128 0 222.5 -66t144.5 -188v989h125v-1683h-123v246q-44 -129 -140.5 -196.5t-234.5 -67.5q-189 0 -317.5 138.5t-128.5 342.5zM207 463q0 -157 99 -264t245 -107q145 0 245.5 108t100.5 265q0 155 -100.5 263t-245.5 108 q-144 0 -244 -109.5t-100 -263.5z" />
<glyph unicode="e" horiz-adv-x="1046" d="M74 459q0 135 61 247.5t167.5 177t234.5 64.5q205 0 328.5 -141t123.5 -373v-4h-790q12 -157 105.5 -251.5t236.5 -94.5q103 0 187 56.5t130 156.5l98 -59q-69 -124 -177 -191t-240 -67q-198 0 -331.5 137.5t-133.5 341.5zM203 526h653q-13 151 -99.5 237.5t-221.5 86.5 t-223.5 -86.5t-108.5 -237.5z" />
<glyph unicode="f" horiz-adv-x="446" d="M47 811v102h113v467q0 155 65.5 234.5t175.5 79.5q30 0 80 -17v-118q-32 16 -53 16q-147 0 -147 -227v-435h182v-104h-182v-809h-123v811h-111z" />
<glyph unicode="g" horiz-adv-x="1153" d="M74 453q0 134 59.5 246t162.5 176.5t226 64.5q251 0 369 -252v225h121v-907q0 -259 -118.5 -400t-342.5 -141q-202 0 -331.5 119.5t-137.5 313.5h143q3 -139 95 -229.5t229 -90.5q157 0 249.5 105.5t92.5 283.5v269q-34 -117 -135 -188t-236 -71q-190 0 -318 137 t-128 339zM201 457q0 -157 101 -265t247 -108q145 0 245.5 108t100.5 265q0 155 -100.5 262.5t-245.5 107.5t-246.5 -108t-101.5 -262z" />
<glyph unicode="h" horiz-adv-x="1046" d="M141 0v1683h125v-981q40 113 125.5 174.5t202.5 61.5q145 0 228 -90t83 -248v-600h-125v547q0 138 -59 209t-174 71q-129 0 -205 -96.5t-76 -263.5v-467h-125z" />
<glyph unicode="i" horiz-adv-x="419" d="M117 1241q0 38 28 66t66 28q39 0 65.5 -27.5t26.5 -66.5t-26.5 -66.5t-65.5 -27.5q-38 0 -66 28t-28 66zM147 0v913h125v-913h-125z" />
<glyph unicode="j" horiz-adv-x="415" d="M113 1241q0 38 28 66t66 28t65 -28t27 -66t-27 -66t-65 -28t-66 28t-28 66zM141 -516v1429h129v-1429h-129z" />
<glyph unicode="k" horiz-adv-x="866" d="M141 0v1683h127v-1081q0 -72 -10 -121q27 46 47 66l354 366h168l-393 -399l473 -514h-172l-387 430l-80 -82v-348h-127z" />
<glyph unicode="l" horiz-adv-x="409" d="M141 0v1683h127v-1683h-127z" />
<glyph unicode="m" horiz-adv-x="1548" d="M141 0v913h125v-198q38 103 113 160t172 57q105 0 177 -55.5t95 -155.5q40 103 115.5 159t175.5 56q134 0 212.5 -82t78.5 -254v-600h-125v545q0 153 -54 215.5t-159 62.5q-103 0 -163 -73.5t-60 -200.5v-549h-125v553q0 266 -211 266q-113 0 -176.5 -91.5t-63.5 -274.5 v-453h-127z" />
<glyph unicode="n" horiz-adv-x="1040" d="M141 0v913h127l-2 -211q40 110 122 170t194 60q142 0 229.5 -87.5t87.5 -264.5v-580h-127v545q0 135 -59 205.5t-172 70.5q-123 0 -198 -89.5t-75 -235.5v-496h-127z" />
<glyph unicode="o" horiz-adv-x="1093" d="M74 457q0 209 135.5 351t335.5 142q202 0 338.5 -142t136.5 -351q0 -208 -136.5 -351t-336.5 -143t-336.5 143t-136.5 351zM197 457q0 -161 100.5 -269t249.5 -108t248.5 108t99.5 269q0 162 -99.5 270.5t-248.5 108.5t-249.5 -109t-100.5 -270z" />
<glyph unicode="p" horiz-adv-x="1159" d="M141 -516v1429h125v-227q47 121 147 190.5t226 69.5q189 0 318.5 -141.5t129.5 -345.5q0 -133 -58.5 -244t-160 -175.5t-223.5 -64.5q-131 0 -232 70t-145 191v-752h-127zM264 461q0 -159 100 -268t246 -109q145 0 245.5 108t100.5 265t-99.5 264.5t-246.5 107.5 q-144 0 -245 -107.5t-101 -260.5z" />
<glyph unicode="q" horiz-adv-x="1159" d="M74 457q0 204 129 343.5t315 139.5q131 0 232 -69t145 -191v233h123v-1429h-125v752q-47 -122 -147.5 -191.5t-227.5 -69.5q-123 0 -225 64t-160.5 175t-58.5 243zM203 455q0 -153 101.5 -261t244.5 -108q146 0 247 107t101 264t-100 263.5t-246 106.5t-247 -108 t-101 -264z" />
<glyph unicode="r" horiz-adv-x="555" d="M141 0v913h127v-204q31 107 101 165t168 58q31 0 84 -12l-13 -127q-44 20 -94 20q-112 0 -179 -87t-67 -232v-494h-127z" />
<glyph unicode="s" horiz-adv-x="735" d="M33 184l110 54q28 -77 83.5 -118.5t133.5 -41.5q83 0 136 46.5t53 119.5q0 58 -35 94t-129 72q-163 63 -230 121.5t-67 160.5q0 109 79.5 183.5t194.5 74.5q182 0 261 -155l-107 -45q-42 98 -149 98q-66 0 -109 -40.5t-43 -102.5q0 -69 41.5 -103t173.5 -82 q134 -48 189 -106.5t55 -157.5q0 -123 -89 -203t-227 -80q-237 0 -325 211z" />
<glyph unicode="t" horiz-adv-x="432" d="M43 811v102h104v334h123v-334h183v-104h-183v-809h-125v811h-102z" />
<glyph unicode="u" horiz-adv-x="1038" d="M141 377v536h129v-532q0 -140 64 -214.5t186 -74.5q123 0 186.5 74t63.5 215v532h127v-536q0 -190 -97 -292.5t-280 -102.5q-81 0 -148.5 22.5t-120 69t-81.5 124t-29 179.5z" />
<glyph unicode="v" horiz-adv-x="813" d="M-49 913h143l273 -612q36 -84 41 -139q9 68 36 139l275 612h143l-454 -964z" />
<glyph unicode="w" horiz-adv-x="1409" d="M-37 913h139l242 -606q7 -24 16 -46.5t13 -40t8 -50.5q5 38 7.5 53t9 36t18.5 48l291 658l284 -658q19 -40 26 -65t11 -72q2 8 4.5 23t3.5 19.5t2.5 13t3.5 14t3.5 10.5t5.5 15.5t6.5 16.5t9.5 25l242 606h139l-418 -964l-274 622q-15 36 -19 44.5t-11.5 30.5t-11.5 38.5 t-9 44.5q-15 -79 -50 -158l-274 -622z" />
<glyph unicode="x" horiz-adv-x="905" d="M-4 0l381 475l-350 438h163l228 -301q16 -16 37 -67q11 41 34 67l228 301h164l-351 -438l379 -475h-153l-269 346q-25 33 -32 74q-15 -49 -35 -74l-266 -346h-158z" />
<glyph unicode="y" horiz-adv-x="831" d="M-53 913h139l303 -671q28 -65 39 -129q6 66 16 86l310 714h131l-617 -1431h-133l227 522z" />
<glyph unicode="z" horiz-adv-x="888" d="M18 0l578 743q23 32 90 86q-55 -16 -78 -16h-542v100h802l-577 -745q-25 -33 -40 -47t-50 -37q54 20 82 20l585 -2v-102h-850z" />
<glyph unicode="{" horiz-adv-x="593" d="M-2 600v107q117 0 161 66t44 200v268q0 201 67 284t228 83q32 0 65 -4v-103q-50 -1 -83 -5t-58.5 -16t-39.5 -28.5t-22.5 -48.5t-11 -68t-2.5 -94v-289q0 -60 -13 -108.5t-34.5 -79t-47 -53t-51 -33t-47 -17t-34.5 -7.5l-13 -1q5 0 13.5 -1t33.5 -7.5t47.5 -17.5 t50.5 -34t48 -53t33.5 -79t13.5 -109v-307q0 -87 6 -132t30.5 -76t64.5 -40t116 -10v-104q-41 -5 -65 -5q-161 0 -228 83.5t-67 283.5v287q0 133 -45 200.5t-160 67.5z" />
<glyph unicode="|" horiz-adv-x="616" d="M246 -424v2030h125v-2030h-125z" />
<glyph unicode="}" horiz-adv-x="593" d="M29 -213q76 1 116 10t64.5 40t30.5 76t6 132v307q0 60 13 109t34.5 79t47 53t50.5 34t46.5 17.5t34.5 7.5l13 1q-5 0 -13.5 1t-33.5 7.5t-47.5 17t-50 33t-47.5 53t-33.5 79t-13.5 108.5v289q0 58 -2.5 94t-11 68t-22.5 48.5t-39.5 28.5t-58.5 16t-83 5v103q33 4 65 4 q161 0 228 -83t67 -284v-268q0 -134 44 -200t161 -66v-107q-115 0 -160 -67.5t-45 -200.5v-287q0 -200 -67 -283.5t-228 -83.5q-24 0 -65 5v104z" />
<glyph unicode="~" d="M74 483q130 135 282 135q66 0 168 -45l109 -47q71 -30 135 -30q104 0 193 92l79 -92q-128 -136 -268 -136q-81 0 -178 43l-109 48q-65 32 -139 32q-103 0 -192 -94z" />
<glyph unicode="&#xa1;" horiz-adv-x="360" d="M90 1374q-1 40 30 70.5t70 30.5q43 0 73 -30t30 -71t-29.5 -69.5t-70.5 -28.5q-42 0 -72.5 28.5t-30.5 69.5zM129 -18v1122h125v-1122h-125z" />
<glyph unicode="&#xa2;" horiz-adv-x="911" d="M74 455q0 99 34.5 187.5t92 150.5t131.5 101t153 46v123h105v-119q99 -6 150 -25.5t122 -72.5v-154q-50 67 -112 100t-160 33v-745q92 9 151 39t121 94v-141q-57 -50 -117 -73t-155 -30v-131h-105v133q-133 7 -227.5 74.5t-139 172.5t-44.5 237zM213 453 q0 -150 70 -252.5t202 -116.5v733q-97 -15 -159.5 -68t-87.5 -126t-25 -170z" />
<glyph unicode="&#xa3;" horiz-adv-x="1124" d="M55 4l2 121q123 37 206 153t83 250q0 39 -22 109h-222v102h183q-76 131 -102.5 200t-26.5 142q0 166 130.5 285t313.5 119q172 0 297 -102.5t150 -264.5l-123 -55q-7 138 -96.5 225.5t-223.5 87.5q-132 0 -223.5 -91t-91.5 -220q0 -100 51 -176l61 -94l33 -56h430v-104 h-409q10 -56 10 -98q0 -114 -58 -220t-151 -161q47 8 84 8q87 0 176 -25l92 -24q82 -21 158 -21q150 0 262 109l53 -105q-127 -121 -305 -121q-103 0 -225 29l-109 27q-122 29 -186 26q-112 0 -201 -55z" />
<glyph unicode="&#xa4;" horiz-adv-x="1380" d="M131 207l125 127q-109 144 -109 328q0 185 111 325l-127 129l107 103l127 -127q142 104 325 104q182 0 324 -104l129 127l106 -103l-129 -131q109 -141 109 -323q0 -183 -109 -324l129 -131l-106 -103l-131 129q-145 -104 -326 -104q-179 0 -319 100l-129 -125zM285 662 q0 -173 115.5 -289.5t287.5 -116.5t288 116.5t116 289.5q0 174 -116 290.5t-288 116.5t-287.5 -116.5t-115.5 -290.5z" />
<glyph unicode="&#xa5;" horiz-adv-x="1185" d="M51 1475h158l332 -555q38 -64 53 -136q15 72 53 136l332 557h158l-389 -650h321v-110h-387l-20 -19v-24h407v-111h-407v-563h-138v563h-403v111h403v24l-12 19h-391v110h325z" />
<glyph unicode="&#xa6;" horiz-adv-x="618" d="M246 397h127v-821h-127v821zM246 784v822h127v-822h-127z" />
<glyph unicode="&#xa7;" d="M129 645q0 94 50 172.5t171 165.5q-64 53 -88 108t-24 130q0 125 98 203.5t254 78.5q147 0 241.5 -78t102.5 -198h-164q-12 70 -62 110.5t-126 40.5q-79 0 -135 -38.5t-56 -122.5q0 -58 35 -101.5t125 -89.5l104 -53q189 -96 259.5 -168t70.5 -178q0 -88 -49.5 -162 t-163.5 -166q82 -53 119 -109.5t37 -140.5q0 -155 -99.5 -234t-269.5 -79q-172 0 -278.5 78.5t-118.5 224.5h166q7 -83 72.5 -129.5t164.5 -46.5q41 0 76.5 8.5t67.5 27.5t50.5 55t18.5 85q0 63 -43 108t-178 105l-205 90q-112 49 -167.5 120.5t-55.5 182.5zM276 651 q0 -70 48.5 -117.5t173.5 -103.5l172 -78q89 79 128.5 141.5t39.5 122.5q0 66 -53 117t-177 113l-157 80q-97 -83 -136 -147.5t-39 -127.5z" />
<glyph unicode="&#xa8;" horiz-adv-x="382" d="M-76 1145q0 36 26 62t62 26q37 0 63.5 -25.5t26.5 -62.5t-27 -62.5t-65 -25.5q-34 0 -60 26t-26 62zM283 1145q0 37 26.5 62.5t63.5 25.5q34 0 59 -26t25 -62t-25 -62t-59 -26q-37 0 -63.5 25.5t-26.5 62.5z" />
<glyph unicode="&#xa9;" horiz-adv-x="1466" d="M0 684q0 149 53 281t147 229t232.5 153t300.5 56t300.5 -56t232.5 -153t147 -229t53 -281q0 -199 -90 -363t-258.5 -261t-384.5 -97t-384.5 97t-258.5 261t-90 363zM135 684q0 -122 42.5 -231.5t119 -191t189.5 -129.5t247 -48t247 48t189.5 129.5t119 191t42.5 231.5 q0 165 -72.5 300t-210 215.5t-315.5 80.5t-315.5 -80.5t-210 -215.5t-72.5 -300zM340 680q0 201 107.5 319.5t291.5 118.5q132 0 222 -76.5t120 -207.5h-155q-15 70 -65 108.5t-122 38.5q-117 0 -184.5 -80.5t-67.5 -218.5q0 -132 65.5 -210.5t178.5 -78.5q81 0 135.5 44 t71.5 126h156q-38 -149 -130.5 -227t-232.5 -78q-179 0 -285 114.5t-106 307.5z" />
<glyph unicode="&#xaa;" horiz-adv-x="983" d="M109 1145q0 154 96.5 253t226.5 99q169 0 244 -141l16 -31v150h109v-662h-111v160q0 -11 -6 -17q-29 -72 -98 -115.5t-154 -43.5q-136 0 -229.5 98.5t-93.5 249.5zM131 610v101h670v-101h-670zM221 1147q0 -111 72.5 -181.5t165.5 -70.5q92 0 163.5 71t71.5 183 q0 113 -73.5 182.5t-163.5 69.5q-94 0 -165 -75t-71 -179z" />
<glyph unicode="&#xab;" horiz-adv-x="796" d="M51 524l328 398l78 -64l-285 -334l283 -325l-84 -66zM340 524l328 398l77 -64l-282 -334l280 -325l-81 -66z" />
<glyph unicode="&#xac;" d="M94 430v127h928v-502h-137v375h-791z" />
<glyph unicode="&#xad;" horiz-adv-x="563" d="M51 408v110h461v-110h-461z" />
<glyph unicode="&#xae;" horiz-adv-x="1091" d="M0 1251q0 153 73.5 277t198 192t273.5 68q150 0 275 -68t198.5 -192t73.5 -277q0 -154 -73.5 -277.5t-198 -191t-275.5 -67.5q-150 0 -274 67.5t-197.5 191t-73.5 277.5zM96 1251q0 -196 126 -324t323 -128q198 0 324 128t126 324q0 195 -126 323t-324 128 q-197 0 -323 -128t-126 -323zM365 987v557h163q91 0 146 -37t55 -110q0 -54 -34 -93.5t-85 -43.5q46 -8 67 -35t54 -103l60 -135h-113l-39 96q-38 90 -55 110q-20 24 -54 24h-65v-230h-100zM465 1296h51q105 0 105 93q0 41 -27 60t-86 19h-43v-172z" />
<glyph unicode="&#xaf;" horiz-adv-x="620" d="M2 1032v107h616v-107h-616z" />
<glyph unicode="&#xb0;" horiz-adv-x="802" d="M70 1196q0 140 90 233t239 93q151 0 242.5 -93t91.5 -233q0 -138 -92 -231t-242 -93t-239.5 92.5t-89.5 231.5zM209 1196q0 -88 50.5 -143.5t139.5 -55.5q90 0 141.5 55.5t51.5 143.5q0 87 -51.5 143t-141.5 56q-88 0 -139 -56t-51 -143z" />
<glyph unicode="&#xb1;" d="M94 0v127h928v-127h-928zM94 506v127h395v280h138v-280h395v-127h-395v-281h-138v281h-395z" />
<glyph unicode="&#xb4;" horiz-adv-x="362" d="M66 1040l239 310l105 -70l-271 -274z" />
<glyph unicode="&#xb5;" horiz-adv-x="1128" d="M164 -485v1456h158v-635q0 -121 56.5 -183.5t164.5 -62.5q118 0 191 80t73 211v590h158v-971h-140l-8 145q-92 -174 -282 -174q-163 0 -232 123q12 -73 12 -168v-411h-151z" />
<glyph unicode="&#xb6;" horiz-adv-x="1042" d="M29 983v49q0 152 110.5 243t268.5 91h600v-127h-117v-1376h-139v1376h-211v-1376h-142v782q-99 0 -182 39t-135.5 117t-52.5 182z" />
<glyph unicode="&#xb7;" horiz-adv-x="301" d="M51 455q0 41 29.5 70.5t71.5 29.5q41 0 69.5 -29.5t28.5 -70.5q0 -42 -28.5 -71.5t-69.5 -29.5q-42 0 -71.5 29.5t-29.5 71.5z" />
<glyph unicode="&#xb8;" horiz-adv-x="268" d="M63 -336l121 281l88 -45l-145 -271z" />
<glyph unicode="&#xba;" horiz-adv-x="985" d="M109 1151q0 155 103 255.5t241 100.5q144 0 247 -101t103 -255q0 -152 -100 -255t-246 -103q-147 0 -247.5 102.5t-100.5 255.5zM121 610v101h670v-101h-670zM219 1151q0 -117 71.5 -186.5t166.5 -69.5q96 0 165.5 72.5t69.5 183.5q0 116 -70.5 185t-164.5 69 q-96 0 -167 -71.5t-71 -182.5z" />
<glyph unicode="&#xbb;" horiz-adv-x="800" d="M51 197l287 331l-285 326l82 68l326 -392l-332 -401zM340 197l289 331l-283 326l80 68l324 -392l-330 -401z" />
<glyph unicode="&#xbf;" horiz-adv-x="913" d="M20 414q0 171 100.5 282t272.5 131v320h127v-426q-25 4 -59 4q-132 0 -223 -91t-91 -222q0 -134 90.5 -226t223.5 -92q132 0 217.5 89.5t85.5 228.5v14l121 -4q0 -195 -118.5 -317.5t-307.5 -122.5q-186 0 -312.5 124t-126.5 308zM358 1415q0 41 30 72t71 31t69.5 -30.5 t28.5 -72.5q0 -41 -28.5 -70.5t-69.5 -29.5t-71 29.5t-30 70.5z" />
<glyph unicode="&#xc0;" horiz-adv-x="1210" d="M-59 0l665 1524l666 -1524h-146l-182 440h-674l-186 -440h-143zM322 553h571l-246 590q-24 55 -30.5 80.5t-10.5 85.5q-1 -15 -2 -25t-3 -21t-2.5 -16.5t-3.5 -16t-3.5 -13.5t-5 -15t-5.5 -16t-7 -20t-9 -23zM395 1913l101 74l239 -312l-76 -35z" />
<glyph unicode="&#xc1;" horiz-adv-x="1210" d="M-59 0l665 1524l666 -1524h-146l-182 440h-674l-186 -440h-143zM322 553h571l-246 590q-24 55 -30.5 80.5t-10.5 85.5q-1 -15 -2 -25t-3 -21t-2.5 -16.5t-3.5 -16t-3.5 -13.5t-5 -15t-5.5 -16t-7 -20t-9 -23zM489 1673l240 309l105 -69l-271 -275z" />
<glyph unicode="&#xc2;" horiz-adv-x="1210" d="M-59 0l665 1524l666 -1524h-146l-182 440h-674l-186 -440h-143zM319 1698l246 284h72l250 -280l-70 -60l-213 236l-215 -238zM322 553h571l-246 590q-24 55 -30.5 80.5t-10.5 85.5q-1 -15 -2 -25t-3 -21t-2.5 -16.5t-3.5 -16t-3.5 -13.5t-5 -15t-5.5 -16t-7 -20t-9 -23z " />
<glyph unicode="&#xc3;" horiz-adv-x="1210" d="M-59 0l665 1524l666 -1524h-146l-182 440h-674l-186 -440h-143zM293 1704q59 123 172 123q34 0 98 -21q2 0 5.5 -1t4.5 -1l66 -20q37 -12 96 -17q37 0 62 12t63 48l55 -25q-57 -135 -174 -135q-45 0 -59 4h-2q-2 0 -6.5 1l-13.5 3t-19 4l-37 13q-20 0 -36 9q-3 1 -5 3 l-63 20q-15 5 -45 5q-27 0 -57.5 -15t-51.5 -37zM322 553h571l-246 590q-24 55 -30.5 80.5t-10.5 85.5q-1 -15 -2 -25t-3 -21t-2.5 -16.5t-3.5 -16t-3.5 -13.5t-5 -15t-5.5 -16t-7 -20t-9 -23z" />
<glyph unicode="&#xc4;" horiz-adv-x="1210" d="M-59 0l665 1524l666 -1524h-146l-182 440h-674l-186 -440h-143zM322 553h571l-246 590q-24 55 -30.5 80.5t-10.5 85.5q-1 -15 -2 -25t-3 -21t-2.5 -16.5t-3.5 -16t-3.5 -13.5t-5 -15t-5.5 -16t-7 -20t-9 -23zM322 1620q0 40 28 68t66 28q40 0 68 -28t28 -68t-28 -67 t-68 -27q-39 0 -66.5 27.5t-27.5 66.5zM700 1620q0 40 28.5 68t68.5 28q38 0 66 -28t28 -68t-28 -67t-68 -27t-67.5 27t-27.5 67z" />
<glyph unicode="&#xc5;" horiz-adv-x="1210" d="M-59 0l634 1444q-84 37 -116.5 74.5t-32.5 97.5q0 81 53 136.5t127 55.5q77 0 131 -55.5t54 -136.5q0 -60 -32 -97.5t-114 -74.5l627 -1444h-146l-182 440h-674l-186 -440h-143zM322 553h571l-246 590q-24 55 -30.5 80.5t-10.5 85.5q-1 -15 -2 -25t-3 -21t-2.5 -16.5 t-3.5 -16t-3.5 -13.5t-5 -15t-5.5 -16t-7 -20t-9 -23zM504 1628q0 -45 30.5 -76.5t73.5 -31.5t74 31.5t31 76.5q0 42 -32 72.5t-75 30.5q-42 0 -72 -30.5t-30 -72.5z" />
<glyph unicode="&#xc6;" horiz-adv-x="1873" d="M-59 0l665 1528l25 -51h698l53 -117h-700l215 -514h702l52 -117h-699l252 -612h703l53 -117h-844l-180 446h-672l-184 -446h-139zM307 553h590l-270 678q-15 34 -23 80q-1 -7 -2 -19t-1.5 -16.5t-1 -12.5t0.5 -12t2.5 -9.5t3.5 -10.5l-37 -47z" />
<glyph unicode="&#xc7;" horiz-adv-x="1353" d="M51 733q0 214 103 392t281.5 281t393.5 103q133 0 223.5 -33.5t227.5 -132.5l23 -14v-170q-118 118 -233.5 171.5t-252.5 53.5q-129 0 -246 -51t-201 -138t-134 -207t-50 -253q0 -176 84.5 -324.5t230.5 -234.5t320 -86q139 0 256 53t226 164v-160l-21 -12 q-156 -106 -239 -136t-222 -30q-159 0 -302 59.5t-245.5 161.5t-162.5 243.5t-60 299.5zM629 -338l114 283l86 -47l-141 -271z" />
<glyph unicode="&#xc8;" horiz-adv-x="964" d="M141 0v1477h729v-117h-596v-516h592v-117h-592v-610h596v-117h-729zM272 1913l101 74l239 -312l-75 -35z" />
<glyph unicode="&#xc9;" horiz-adv-x="964" d="M141 0v1477h729v-117h-596v-516h592v-117h-592v-610h596v-117h-729zM367 1673l239 309l105 -69l-271 -275z" />
<glyph unicode="&#xca;" horiz-adv-x="964" d="M141 0v1477h729v-117h-596v-516h592v-117h-592v-610h596v-117h-729zM197 1698l245 284h72l250 -280l-70 -60l-213 236l-215 -238z" />
<glyph unicode="&#xcb;" horiz-adv-x="964" d="M141 0v1477h729v-117h-596v-516h592v-117h-592v-610h596v-117h-729zM215 1778q0 36 26 62t62 26q37 0 63.5 -25.5t26.5 -62.5t-27 -62.5t-65 -25.5q-34 0 -60 26t-26 62zM573 1778q0 36 27 62t64 26q34 0 59 -26t25 -62t-25 -62t-59 -26q-37 0 -64 26t-27 62z" />
<glyph unicode="&#xcc;" horiz-adv-x="415" d="M-2 1913l100 74l240 -312l-76 -35zM141 0v1475h133v-1475h-133z" />
<glyph unicode="&#xcd;" horiz-adv-x="415" d="M92 1673l240 309l104 -69l-270 -275zM141 0v1475h133v-1475h-133z" />
<glyph unicode="&#xce;" horiz-adv-x="415" d="M-76 1698l246 284h72l250 -280l-70 -60l-213 236l-215 -238zM141 0v1475h133v-1475h-133z" />
<glyph unicode="&#xcf;" horiz-adv-x="415" d="M-59 1778q0 36 26 62t62 26q37 0 63.5 -25.5t26.5 -62.5t-27 -62.5t-65 -25.5q-34 0 -60 26t-26 62zM141 0v1475h133v-1475h-133zM299 1778q0 37 26.5 62.5t63.5 25.5q34 0 59 -26t25 -62t-25 -62t-59 -26q-37 0 -63.5 25.5t-26.5 62.5z" />
<glyph unicode="&#xd1;" horiz-adv-x="1622" d="M141 0v1530l1121 -1176q61 -64 98 -147q-12 98 -12 117v1151h131v-1524l-1121 1179q-32 36 -108 152q24 -73 24 -115v-1167h-133zM500 1704q58 123 172 123q34 0 98 -21q2 0 5.5 -1t4.5 -1l66 -20q37 -12 96 -17q37 0 62 12t63 48l55 -25q-57 -135 -174 -135q-45 0 -59 4 h-2q-2 0 -6.5 1l-13.5 3t-19 4l-37 13q-20 0 -36 9q-3 1 -5 3l-63 20q-15 5 -45 5q-27 0 -57.5 -15t-51.5 -37z" />
<glyph unicode="&#xd2;" horiz-adv-x="1689" d="M74 737q0 214 102 391t279 279t391 102t391 -102t279 -279t102 -391q0 -215 -102 -392.5t-279 -279.5t-391 -102t-391 102t-279 279.5t-102 392.5zM209 737q0 -177 85 -327t231.5 -237t320.5 -87t320 87t230.5 237t84.5 327q0 133 -50 253t-135 207t-202.5 138t-247.5 51 q-174 0 -320.5 -86.5t-231.5 -236t-85 -326.5zM635 1913l100 74l240 -312l-76 -35z" />
<glyph unicode="&#xd3;" horiz-adv-x="1689" d="M74 737q0 214 102 391t279 279t391 102t391 -102t279 -279t102 -391q0 -215 -102 -392.5t-279 -279.5t-391 -102t-391 102t-279 279.5t-102 392.5zM209 737q0 -177 85 -327t231.5 -237t320.5 -87t320 87t230.5 237t84.5 327q0 133 -50 253t-135 207t-202.5 138t-247.5 51 q-174 0 -320.5 -86.5t-231.5 -236t-85 -326.5zM729 1673l240 309l104 -69l-270 -275z" />
<glyph unicode="&#xd4;" horiz-adv-x="1689" d="M74 737q0 214 102 391t279 279t391 102t391 -102t279 -279t102 -391q0 -215 -102 -392.5t-279 -279.5t-391 -102t-391 102t-279 279.5t-102 392.5zM209 737q0 -177 85 -327t231.5 -237t320.5 -87t320 87t230.5 237t84.5 327q0 133 -50 253t-135 207t-202.5 138t-247.5 51 q-174 0 -320.5 -86.5t-231.5 -236t-85 -326.5zM559 1698l246 284h72l249 -280l-69 -60l-213 236l-215 -238z" />
<glyph unicode="&#xd5;" horiz-adv-x="1689" d="M74 737q0 214 102 391t279 279t391 102t391 -102t279 -279t102 -391q0 -215 -102 -392.5t-279 -279.5t-391 -102t-391 102t-279 279.5t-102 392.5zM209 737q0 -177 85 -327t231.5 -237t320.5 -87t320 87t230.5 237t84.5 327q0 133 -50 253t-135 207t-202.5 138t-247.5 51 q-174 0 -320.5 -86.5t-231.5 -236t-85 -326.5zM532 1704q58 123 173 123q34 0 98 -21q2 0 5.5 -1t4.5 -1l66 -20q37 -12 96 -17q37 0 62 12t63 48l55 -25q-57 -135 -174 -135q-45 0 -59 4h-2q-2 0 -6.5 1l-13.5 3t-19 4l-37 13q-20 0 -36 9q-3 1 -5 3l-64 20q-15 5 -45 5 q-27 0 -57 -15t-51 -37z" />
<glyph unicode="&#xd6;" horiz-adv-x="1689" d="M74 737q0 160 60 303.5t162.5 246.5t246 163.5t303.5 60.5q159 0 302.5 -60.5t246 -163.5t163 -246.5t60.5 -303.5t-60.5 -303.5t-163 -246.5t-246 -163.5t-302.5 -60.5t-302 60t-246 163t-163.5 246.5t-60.5 304.5zM209 737q0 -177 85 -327t231.5 -237t320.5 -87 q130 0 247.5 51.5t202.5 138.5t135 207.5t50 253.5q0 132 -50 252t-135 207t-202.5 138.5t-247.5 51.5q-174 0 -320.5 -86.5t-231.5 -236t-85 -326.5zM453 1620q0 40 27 68t67 28q39 0 67.5 -28.5t28.5 -67.5t-28.5 -66.5t-67.5 -27.5q-40 0 -67 27t-27 67zM1049 1620 q0 40 28 68t68 28q38 0 66 -28t28 -68q0 -39 -27.5 -66.5t-66.5 -27.5q-40 0 -68 27t-28 67z" />
<glyph unicode="&#xd7;" d="M170 791l92 90l299 -299l297 297l88 -88l-297 -297l297 -297l-92 -91l-295 295l-297 -297l-90 91l297 297z" />
<glyph unicode="&#xd8;" horiz-adv-x="1697" d="M74 -4l209 207q-103 122 -156 248.5t-53 285.5q0 160 60 303t162.5 246t245.5 163t302 60q153 0 276.5 -45.5t265.5 -171.5l203 199l37 -39l-205 -197q102 -131 149.5 -250t47.5 -268q0 -215 -102 -392.5t-279 -279.5t-391 -102q-151 0 -266 43t-256 162l-213 -207z M215 733q0 -235 166 -438l909 903q-116 99 -220 137.5t-220 38.5q-129 0 -246.5 -51t-202.5 -137t-135.5 -204.5t-50.5 -248.5zM418 262q113 -100 211.5 -138t216.5 -38q130 0 248 51.5t202.5 139t134.5 208t50 252.5q0 234 -154 420z" />
<glyph unicode="&#xd9;" horiz-adv-x="1376" d="M141 571v904h133v-938q0 -201 114.5 -326t297.5 -125q186 0 301 124.5t115 326.5v938h133v-904q0 -170 -35 -268q-54 -153 -194 -246.5t-318 -93.5q-228 0 -385 148q-88 85 -125 190t-37 270zM479 1913l101 74l239 -312l-76 -35z" />
<glyph unicode="&#xda;" horiz-adv-x="1376" d="M141 571v904h133v-938q0 -201 114.5 -326t297.5 -125q186 0 301 124.5t115 326.5v938h133v-904q0 -170 -35 -268q-54 -153 -194 -246.5t-318 -93.5q-228 0 -385 148q-88 85 -125 190t-37 270zM571 1673l240 309l104 -69l-270 -275z" />
<glyph unicode="&#xdb;" horiz-adv-x="1376" d="M141 571v904h133v-938q0 -201 114.5 -326t297.5 -125q186 0 301 124.5t115 326.5v938h133v-904q0 -170 -35 -268q-54 -153 -194 -246.5t-318 -93.5q-228 0 -385 148q-88 85 -125 190t-37 270zM403 1698l246 284h72l250 -280l-70 -60l-213 236l-215 -238z" />
<glyph unicode="&#xdc;" horiz-adv-x="1374" d="M141 571v904h133v-938q0 -201 113.5 -326t296.5 -125q186 0 301 124.5t115 326.5v938h133v-904q0 -173 -35 -268q-53 -153 -193 -246.5t-319 -93.5q-228 0 -385 148q-88 85 -124 188.5t-36 271.5zM418 1663q0 40 28 67t68 27t67 -27t27 -67t-27 -68t-67 -28t-68 28 t-28 68zM766 1663q0 40 28 67t68 27q39 0 66.5 -27.5t27.5 -66.5q0 -40 -28 -68t-66 -28q-40 0 -68 28t-28 68z" />
<glyph unicode="&#xdf;" horiz-adv-x="1099" d="M141 0v1257q0 198 107.5 313.5t290.5 115.5q179 0 297 -111.5t118 -280.5q0 -139 -80 -236t-223 -132q181 -32 284 -153.5t103 -301.5q0 -214 -138 -347.5t-361 -133.5q-75 0 -156 16l4 113q70 -21 135 -21q167 0 275 108t108 277q0 178 -122.5 280.5t-336.5 102.5h-38 v101h34q177 0 278 83.5t101 231.5q0 128 -79.5 211.5t-202.5 83.5q-126 0 -199.5 -82.5t-73.5 -269.5v-1225h-125z" />
<glyph unicode="&#xe0;" horiz-adv-x="1159" d="M74 459q0 133 60 245.5t163 178t225 65.5q129 0 223.5 -66.5t149.5 -189.5v221h121v-913h-123v238q-40 -122 -139 -191.5t-234 -69.5q-124 0 -226.5 64t-161 174.5t-58.5 243.5zM201 463q0 -155 101.5 -264t244.5 -109q145 0 247.5 109.5t102.5 263.5t-102.5 263.5 t-245.5 109.5q-142 0 -245 -110.5t-103 -262.5zM371 1280l100 74l240 -312l-76 -34z" />
<glyph unicode="&#xe1;" horiz-adv-x="1159" d="M74 459q0 133 60 245.5t163 178t225 65.5q129 0 223.5 -66.5t149.5 -189.5v221h121v-913h-123v238q-40 -122 -139 -191.5t-234 -69.5q-124 0 -226.5 64t-161 174.5t-58.5 243.5zM201 463q0 -155 101.5 -264t244.5 -109q145 0 247.5 109.5t102.5 263.5t-102.5 263.5 t-245.5 109.5q-142 0 -245 -110.5t-103 -262.5zM463 1040l239 310l105 -70l-270 -274z" />
<glyph unicode="&#xe2;" horiz-adv-x="1159" d="M74 459q0 133 60 245.5t163 178t225 65.5q129 0 223.5 -66.5t149.5 -189.5v221h121v-913h-123v238q-40 -122 -139 -191.5t-234 -69.5q-124 0 -226.5 64t-161 174.5t-58.5 243.5zM201 463q0 -155 101.5 -264t244.5 -109q145 0 247.5 109.5t102.5 263.5t-102.5 263.5 t-245.5 109.5q-142 0 -245 -110.5t-103 -262.5zM295 1065l246 285h71l250 -281l-69 -59l-213 235l-215 -237z" />
<glyph unicode="&#xe3;" horiz-adv-x="1159" d="M74 459q0 133 60 245.5t163 178t225 65.5q129 0 223.5 -66.5t149.5 -189.5v221h121v-913h-123v238q-40 -122 -139 -191.5t-234 -69.5q-124 0 -226.5 64t-161 174.5t-58.5 243.5zM201 463q0 -155 101.5 -264t244.5 -109q145 0 247.5 109.5t102.5 263.5t-102.5 263.5 t-245.5 109.5q-142 0 -245 -110.5t-103 -262.5zM236 1112q58 123 172 123q26 0 98 -21l76 -22q50 -16 96 -16q38 0 62.5 11.5t62.5 47.5l55 -25q-57 -135 -174 -135q-58 0 -100 12l-142 46q-12 4 -45 4q-27 0 -57 -15t-51 -37z" />
<glyph unicode="&#xe4;" horiz-adv-x="1159" d="M74 459q0 133 60 245.5t163 178t225 65.5q129 0 223.5 -66.5t149.5 -189.5v221h121v-913h-123v238q-40 -122 -139 -191.5t-234 -69.5q-124 0 -226.5 64t-161 174.5t-58.5 243.5zM201 463q0 -155 101.5 -264t244.5 -109q145 0 247.5 109.5t102.5 263.5t-102.5 263.5 t-245.5 109.5q-142 0 -245 -110.5t-103 -262.5zM338 1184q0 37 26.5 63.5t63.5 26.5q35 0 61.5 -26.5t26.5 -63.5q0 -35 -26.5 -61.5t-61.5 -26.5q-37 0 -63.5 26.5t-26.5 61.5zM698 1184q0 37 25.5 63.5t62.5 26.5q36 0 61 -26.5t25 -63.5q0 -36 -25 -62t-61 -26t-62 26 t-26 62z" />
<glyph unicode="&#xe5;" horiz-adv-x="1159" d="M74 459q0 133 60 245.5t163 178t225 65.5q129 0 223.5 -66.5t149.5 -189.5v221h121v-913h-123v238q-40 -122 -139 -191.5t-234 -69.5q-124 0 -226.5 64t-161 174.5t-58.5 243.5zM201 463q0 -155 101.5 -264t244.5 -109q145 0 247.5 109.5t102.5 263.5t-102.5 263.5 t-245.5 109.5q-142 0 -245 -110.5t-103 -262.5zM367 1194q0 75 52.5 128.5t127.5 53.5q77 0 131.5 -53.5t54.5 -128.5t-54.5 -128.5t-131.5 -53.5q-75 0 -127.5 53.5t-52.5 128.5zM444 1194q0 -43 31 -73.5t74 -30.5t73.5 30.5t30.5 73.5t-31 73.5t-75 30.5q-41 0 -72 -31 t-31 -73z" />
<glyph unicode="&#xe6;" horiz-adv-x="1753" d="M74 309q0 163 102 254.5t283 91.5q258 0 332 -159q-5 96 -21 159.5t-52 112.5t-99 71.5t-158 22.5q-186 0 -295 -127l-19 113q127 115 328 115q180 0 276.5 -69t116.5 -212q44 125 149 196.5t243 71.5q193 0 314.5 -133.5t121.5 -345.5q0 -5 -1 -18t-1 -21h-781 q9 -162 102.5 -255t246.5 -93q107 0 186 55t119 158l94 -49l-14 -23q-64 -94 -111 -143t-113 -77t-157 -28q-149 0 -258.5 72.5t-149.5 198.5q-17 -132 -122.5 -202.5t-272.5 -70.5q-182 0 -285.5 89t-103.5 245zM190 315q0 -114 75.5 -176.5t209.5 -62.5q154 0 233.5 61.5 t79.5 181.5q0 244 -317 244q-133 0 -207 -65.5t-74 -182.5zM924 516h653q-12 160 -97 251t-223 91q-113 0 -194.5 -57t-116.5 -164q-17 -44 -22 -121z" />
<glyph unicode="&#xe7;" horiz-adv-x="858" d="M51 459q0 205 138.5 348t336.5 143q157 0 283 -104v-154q-94 137 -268 137q-152 0 -253.5 -105t-101.5 -263q0 -157 98.5 -265t243.5 -108q157 0 281 133v-141q-134 -107 -289 -107q-131 0 -238.5 64.5t-169 176t-61.5 245.5zM354 -328l113 281l88 -43l-141 -270z" />
<glyph unicode="&#xe8;" horiz-adv-x="1046" d="M74 459q0 135 61 247.5t167.5 177t234.5 64.5q205 0 328.5 -141t123.5 -373v-4h-790q12 -157 105.5 -251.5t236.5 -94.5q103 0 187 56.5t130 156.5l98 -59q-69 -124 -177 -191t-240 -67q-198 0 -331.5 137.5t-133.5 341.5zM203 526h653q-13 151 -99.5 237.5t-221.5 86.5 t-223.5 -86.5t-108.5 -237.5zM313 1280l101 74l239 -312l-75 -34z" />
<glyph unicode="&#xe9;" horiz-adv-x="1046" d="M74 459q0 135 61 247.5t167.5 177t234.5 64.5q205 0 328.5 -141t123.5 -373v-4h-790q12 -157 105.5 -251.5t236.5 -94.5q103 0 187 56.5t130 156.5l98 -59q-69 -124 -177 -191t-240 -67q-198 0 -331.5 137.5t-133.5 341.5zM203 526h653q-13 151 -99.5 237.5t-221.5 86.5 t-223.5 -86.5t-108.5 -237.5zM408 1040l239 310l105 -70l-271 -274z" />
<glyph unicode="&#xea;" horiz-adv-x="1046" d="M74 459q0 135 61 247.5t167.5 177t234.5 64.5q205 0 328.5 -141t123.5 -373v-4h-790q12 -157 105.5 -251.5t236.5 -94.5q103 0 187 56.5t130 156.5l98 -59q-69 -124 -177 -191t-240 -67q-198 0 -331.5 137.5t-133.5 341.5zM203 526h653q-13 151 -99.5 237.5t-221.5 86.5 t-223.5 -86.5t-108.5 -237.5zM238 1065l245 285h72l250 -281l-70 -59l-213 235l-215 -237z" />
<glyph unicode="&#xeb;" horiz-adv-x="1046" d="M74 459q0 135 61 247.5t167.5 177t234.5 64.5q205 0 328.5 -141t123.5 -373v-4h-790q12 -157 105.5 -251.5t236.5 -94.5q103 0 187 56.5t130 156.5l98 -59q-69 -124 -177 -191t-240 -67q-198 0 -331.5 137.5t-133.5 341.5zM203 526h653q-13 151 -99.5 237.5t-221.5 86.5 t-223.5 -86.5t-108.5 -237.5zM256 1145q0 36 26 62t62 26q37 0 63.5 -25.5t26.5 -62.5t-27 -62.5t-65 -25.5q-34 0 -60 26t-26 62zM614 1145q0 36 27 62t64 26q34 0 58.5 -25.5t24.5 -62.5t-24.5 -62.5t-58.5 -25.5q-37 0 -64 26t-27 62z" />
<glyph unicode="&#xec;" horiz-adv-x="225" d="M-96 1280l100 74l240 -312l-76 -34zM51 0v913h123v-913h-123z" />
<glyph unicode="&#xed;" horiz-adv-x="225" d="M-2 1040l240 310l104 -70l-270 -274zM51 0v913h123v-913h-123z" />
<glyph unicode="&#xee;" horiz-adv-x="225" d="M-172 1065l246 285h71l250 -281l-69 -59l-213 235l-215 -237zM51 0v913h123v-913h-123z" />
<glyph unicode="&#xef;" horiz-adv-x="225" d="M-154 1145q0 36 26 62t62 26q37 0 64 -26t27 -62q0 -37 -27.5 -62.5t-65.5 -25.5q-34 0 -60 26t-26 62zM51 0v913h123v-913h-123zM205 1145q0 37 26.5 62.5t63.5 25.5q34 0 59 -26t25 -62t-25 -62t-59 -26q-37 0 -63.5 25.5t-26.5 62.5z" />
<glyph unicode="&#xf1;" horiz-adv-x="1040" d="M141 0v913h127l-2 -211q40 110 122 170t194 60q142 0 229.5 -87.5t87.5 -264.5v-580h-127v545q0 135 -59 205.5t-172 70.5q-123 0 -198 -89.5t-75 -235.5v-496h-127zM195 1112q59 123 172 123q26 0 98 -21l76 -22q50 -16 96 -16q38 0 62.5 11.5t62.5 47.5l55 -25 q-57 -135 -174 -135q-58 0 -100 12l-142 46q-12 4 -45 4q-27 0 -57 -15t-51 -37z" />
<glyph unicode="&#xf2;" horiz-adv-x="1093" d="M74 457q0 209 135.5 351t335.5 142q202 0 338.5 -142t136.5 -351q0 -208 -136.5 -351t-336.5 -143t-336.5 143t-136.5 351zM197 457q0 -161 100.5 -269t249.5 -108t248.5 108t99.5 269q0 162 -99.5 270.5t-248.5 108.5t-249.5 -109t-100.5 -270zM338 1280l100 74 l240 -312l-76 -34z" />
<glyph unicode="&#xf3;" horiz-adv-x="1093" d="M74 457q0 209 135.5 351t335.5 142q202 0 338.5 -142t136.5 -351q0 -208 -136.5 -351t-336.5 -143t-336.5 143t-136.5 351zM197 457q0 -161 100.5 -269t249.5 -108t248.5 108t99.5 269q0 162 -99.5 270.5t-248.5 108.5t-249.5 -109t-100.5 -270zM430 1040l240 310 l104 -70l-270 -274z" />
<glyph unicode="&#xf4;" horiz-adv-x="1093" d="M74 457q0 209 135.5 351t335.5 142q202 0 338.5 -142t136.5 -351q0 -208 -136.5 -351t-336.5 -143t-336.5 143t-136.5 351zM197 457q0 -161 100.5 -269t249.5 -108t248.5 108t99.5 269q0 162 -99.5 270.5t-248.5 108.5t-249.5 -109t-100.5 -270zM262 1065l246 285h72 l249 -281l-69 -59l-213 235l-215 -237z" />
<glyph unicode="&#xf5;" horiz-adv-x="1093" d="M74 457q0 209 135.5 351t335.5 142q202 0 338.5 -142t136.5 -351q0 -208 -136.5 -351t-336.5 -143t-336.5 143t-136.5 351zM197 457q0 -161 100.5 -269t249.5 -108t248.5 108t99.5 269q0 162 -99.5 270.5t-248.5 108.5t-249.5 -109t-100.5 -270zM236 1112q58 123 172 123 q26 0 98 -21l76 -22q50 -16 96 -16q38 0 62.5 11.5t62.5 47.5l55 -25q-57 -135 -174 -135q-58 0 -100 12l-142 46q-12 4 -45 4q-27 0 -57 -15t-51 -37z" />
<glyph unicode="&#xf6;" horiz-adv-x="1093" d="M74 457q0 209 135.5 351t335.5 142q202 0 338.5 -142t136.5 -351q0 -208 -136.5 -351t-336.5 -143t-336.5 143t-136.5 351zM197 457q0 -161 100.5 -269t249.5 -108t248.5 108t99.5 269q0 162 -99.5 270.5t-248.5 108.5t-249.5 -109t-100.5 -270zM279 1184q0 37 26.5 63.5 t61.5 26.5q37 0 63.5 -26.5t26.5 -63.5q0 -35 -26.5 -61.5t-63.5 -26.5q-35 0 -61.5 26.5t-26.5 61.5zM637 1184q0 37 26.5 63.5t63.5 26.5q35 0 60.5 -26.5t25.5 -63.5q0 -35 -25.5 -61.5t-60.5 -26.5q-37 0 -63.5 26.5t-26.5 61.5z" />
<glyph unicode="&#xf7;" d="M94 428v127h928v-127h-928zM467 90v189h184v-189h-184zM467 705v188h184v-188h-184z" />
<glyph unicode="&#xf8;" horiz-adv-x="1093" d="M74 2l119 125q-119 140 -119 330q0 209 136 351t337 142q89 0 164.5 -28t154.5 -99l115 121l39 -37l-117 -123q61 -81 89 -155.5t28 -171.5q0 -208 -136.5 -351t-336.5 -143q-88 0 -163 27.5t-155 95.5l-120 -119zM197 459q0 -75 18.5 -123t63.5 -121l503 524 q-59 53 -113 75t-124 22q-147 0 -247.5 -109t-100.5 -268zM317 174q55 -52 107.5 -73t122.5 -21q149 0 249.5 108t100.5 269q0 71 -17.5 118t-62.5 125z" />
<glyph unicode="&#xf9;" horiz-adv-x="1038" d="M141 377v536h129v-532q0 -140 64 -214.5t186 -74.5q123 0 186.5 74t63.5 215v532h127v-536q0 -190 -97 -292.5t-280 -102.5q-81 0 -148.5 22.5t-120 69t-81.5 124t-29 179.5zM309 1280l101 74l239 -312l-76 -34z" />
<glyph unicode="&#xfa;" horiz-adv-x="1038" d="M141 377v536h129v-532q0 -140 64 -214.5t186 -74.5q123 0 186.5 74t63.5 215v532h127v-536q0 -190 -97 -292.5t-280 -102.5q-81 0 -148.5 22.5t-120 69t-81.5 124t-29 179.5zM403 1040l240 310l105 -70l-271 -274z" />
<glyph unicode="&#xfb;" horiz-adv-x="1038" d="M141 377v536h129v-532q0 -140 64 -214.5t186 -74.5q123 0 186.5 74t63.5 215v532h127v-536q0 -190 -97 -292.5t-280 -102.5q-81 0 -148.5 22.5t-120 69t-81.5 124t-29 179.5zM233 1065l246 285h72l250 -281l-70 -59l-213 235l-215 -237z" />
<glyph unicode="&#xfc;" horiz-adv-x="1038" d="M141 377v536h129v-532q0 -140 64 -214.5t186 -74.5q123 0 186.5 74t63.5 215v532h127v-536q0 -190 -97 -292.5t-280 -102.5q-81 0 -148.5 22.5t-120 69t-81.5 124t-29 179.5zM252 1184q0 37 26.5 63.5t61.5 26.5q37 0 62.5 -26.5t25.5 -63.5q0 -36 -26 -62t-62 -26 q-35 0 -61.5 26.5t-26.5 61.5zM610 1184q0 37 25.5 63.5t62.5 26.5q35 0 61.5 -26.5t26.5 -63.5q0 -35 -26.5 -61.5t-61.5 -26.5q-36 0 -62 26t-26 62z" />
<glyph unicode="&#xff;" horiz-adv-x="831" d="M-53 913h139l303 -671q28 -65 39 -129q6 66 16 86l310 714h131l-617 -1431h-133l227 522zM147 1145q0 36 26.5 62t62.5 26q37 0 63.5 -25.5t26.5 -62.5t-27.5 -62.5t-65.5 -25.5q-34 0 -60 26t-26 62zM506 1145q0 37 26.5 62.5t63.5 25.5q34 0 59 -26t25 -62t-25 -62 t-59 -26q-37 0 -63.5 25.5t-26.5 62.5z" />
<glyph unicode="&#x152;" horiz-adv-x="2312" d="M74 733q0 158 61 302t165 248t248 165t302 61q226 0 395 -107t248 -304v379h723v-115h-600v-516h598v-117h-598v-612h596v-117h-725v371q-71 -192 -243.5 -301t-393.5 -109q-128 0 -247 38.5t-214 109.5t-166.5 166t-110 213t-38.5 245zM211 739q0 -134 49.5 -253.5 t134.5 -205.5t203 -136t250 -50q129 0 247 51t204 136.5t137 203.5t51 246q0 176 -85.5 324t-232.5 233.5t-321 85.5q-130 0 -248 -50t-203 -135t-135.5 -202.5t-50.5 -247.5z" />
<glyph unicode="&#x153;" horiz-adv-x="1851" d="M74 463q0 206 130.5 345.5t323.5 139.5q157 0 269.5 -84t150.5 -229q32 148 140 230.5t268 82.5q196 0 317 -135.5t121 -355.5v-31h-784q12 -162 105 -255t243 -93q107 0 189.5 58.5t119.5 158.5l100 -49q-68 -132 -172 -201.5t-237 -69.5q-161 0 -273 83.5t-141 224.5 q-41 -146 -148 -226t-261 -80q-199 0 -330 138t-131 348zM199 457q0 -162 96 -265.5t246 -103.5q154 0 252 105.5t98 271.5q0 163 -99 267t-253 104q-151 0 -245.5 -106t-94.5 -273zM1020 512h651q-10 161 -93.5 249.5t-221.5 88.5q-148 0 -235 -88t-101 -250z" />
<glyph unicode="&#x178;" horiz-adv-x="937" d="M-74 1475h158l332 -555q42 -70 53 -136q19 79 53 136l332 555h158l-473 -777v-698h-138v698zM201 1778q0 36 26 62t62 26q37 0 63.5 -25.5t26.5 -62.5t-27 -62.5t-65 -25.5q-34 0 -60 26t-26 62zM559 1778q0 37 26.5 62.5t63.5 25.5q34 0 59 -26t25 -62t-25 -62t-59 -26 q-37 0 -63.5 25.5t-26.5 62.5z" />
<glyph unicode="&#x2c6;" horiz-adv-x="536" d="M-16 1065l245 285h72l250 -281l-70 -59l-213 235l-215 -237z" />
<glyph unicode="&#x2dc;" horiz-adv-x="589" d="M-16 1071q58 123 172 123q37 0 98 -20q2 0 5.5 -1.5t4.5 -1.5l66 -20q32 -10 96 -16q38 0 62.5 11.5t62.5 47.5l55 -25q-57 -135 -174 -135q-45 0 -59 4h-2q-2 0 -6.5 1.5t-13.5 3.5t-19 4l-37 12q-20 0 -36 9q-3 1 -5 3l-64 21q-12 4 -45 4q-27 0 -57 -15t-51 -37z" />
<glyph unicode="&#x2000;" horiz-adv-x="993" />
<glyph unicode="&#x2001;" horiz-adv-x="1987" />
<glyph unicode="&#x2002;" horiz-adv-x="993" />
<glyph unicode="&#x2003;" horiz-adv-x="1987" />
<glyph unicode="&#x2004;" horiz-adv-x="662" />
<glyph unicode="&#x2005;" horiz-adv-x="496" />
<glyph unicode="&#x2006;" horiz-adv-x="331" />
<glyph unicode="&#x2007;" horiz-adv-x="331" />
<glyph unicode="&#x2008;" horiz-adv-x="248" />
<glyph unicode="&#x2009;" horiz-adv-x="397" />
<glyph unicode="&#x200a;" horiz-adv-x="110" />
<glyph unicode="&#x2010;" horiz-adv-x="563" d="M51 408v110h461v-110h-461z" />
<glyph unicode="&#x2011;" horiz-adv-x="563" d="M51 408v110h461v-110h-461z" />
<glyph unicode="&#x2012;" horiz-adv-x="563" d="M51 408v110h461v-110h-461z" />
<glyph unicode="&#x2013;" horiz-adv-x="1200" d="M137 686v105h926v-105h-926z" />
<glyph unicode="&#x2014;" horiz-adv-x="2039" d="M61 684v107h1917v-107h-1917z" />
<glyph unicode="&#x2018;" horiz-adv-x="346" d="M27 967l227 508h84l-143 -508h-168z" />
<glyph unicode="&#x2019;" horiz-adv-x="348" d="M-16 967l149 510h164l-225 -510h-88z" />
<glyph unicode="&#x201a;" horiz-adv-x="348" d="M-16 -238l149 508h164l-225 -508h-88z" />
<glyph unicode="&#x201c;" horiz-adv-x="608" d="M27 967l227 508h84l-143 -508h-168zM293 967l225 508h84l-141 -508h-168z" />
<glyph unicode="&#x201d;" horiz-adv-x="610" d="M-16 967l149 510h164l-225 -510h-88zM248 967l149 510h164l-227 -510h-86z" />
<glyph unicode="&#x201e;" horiz-adv-x="610" d="M-16 -238l149 508h164l-225 -508h-88zM248 -238l149 508h164l-227 -508h-86z" />
<glyph unicode="&#x2022;" horiz-adv-x="700" d="M0 662q0 150 101.5 249t256.5 99q141 0 241.5 -101.5t100.5 -242.5q0 -143 -102 -242.5t-248 -99.5t-248 99t-102 239z" />
<glyph unicode="&#x2026;" horiz-adv-x="2039" d="M258 82q0 40 29 69t69 29t69.5 -29t29.5 -69t-30 -69t-69 -29t-68.5 28.5t-29.5 69.5zM940 82q0 40 29 69t69 29t69.5 -29t29.5 -69t-30 -69t-69 -29t-68.5 28.5t-29.5 69.5zM1608 82q0 40 28.5 69t69.5 29t69.5 -29t28.5 -69q0 -41 -28.5 -69.5t-69.5 -28.5t-69.5 28.5 t-28.5 69.5z" />
<glyph unicode="&#x202f;" horiz-adv-x="397" />
<glyph unicode="&#x2039;" horiz-adv-x="503" d="M51 524l328 398l78 -64l-285 -334l283 -325l-84 -66z" />
<glyph unicode="&#x203a;" horiz-adv-x="509" d="M51 197l287 331l-285 326l82 68l326 -392l-332 -401z" />
<glyph unicode="&#x205f;" horiz-adv-x="496" />
<glyph unicode="&#x20ac;" horiz-adv-x="1200" d="M61 545v86h156q-2 27 -2 106q0 69 4 119h-158v86h162q12 106 57.5 206t115 178.5t166 126.5t202.5 48q60 0 117 -13t95 -31.5t67 -37.5t43 -32l14 -13v-174q-3 8 -10 21t-34.5 45.5t-62 58t-94.5 46t-129 20.5q-87 0 -163.5 -40.5t-128.5 -106t-84 -144t-40 -158.5h604 v-86h-610q-4 -54 -4 -119q0 -70 4 -106h610v-86h-602q10 -120 49.5 -212.5t97.5 -147t125.5 -82t141.5 -27.5q68 0 127.5 16t95 38.5t61 45.5t36.5 39l10 16v-163q-5 -4 -14.5 -11t-42 -24.5t-69 -30.5t-95.5 -24t-121 -11q-122 0 -221.5 49.5t-163.5 132.5t-102 184 t-48 212h-162z" />
<glyph unicode="&#x2122;" horiz-adv-x="1634" d="M109 1382v93h440v-91h-170v-647h-103v645h-167zM524 737l148 762h33l229 -504l16 -41q13 -33 13 -69q3 40 14 71l6 15l240 528h32l148 -762h-105l-77 445l-7 35q0 4 -1 12.5t-1 13.5q0 4 5 39l-9 -29l-18 -59l-215 -477h-23l-211 469l-12 33q-11 32 -18 63q4 -28 4 -39 q0 -18 -2 -26l-2 -9l-82 -471h-105z" />
<glyph unicode="&#x25fc;" horiz-adv-x="911" d="M0 0v911h911v-911h-911z" />
<glyph unicode="&#xfb01;" horiz-adv-x="866" d="M47 811v102h113v467q0 155 65.5 234.5t175.5 79.5q30 0 80 -17v-118q-32 16 -53 16q-147 0 -147 -227v-435h182v-104h-182v-809h-123v811h-111zM563 1241q0 38 28 66t66 28q39 0 66 -27.5t27 -66.5t-27 -66.5t-66 -27.5q-38 0 -66 28t-28 66zM594 0v913h125v-913h-125z " />
<glyph unicode="&#xfb02;" horiz-adv-x="856" d="M47 811v102h113v467q0 155 65.5 234.5t175.5 79.5q30 0 80 -17v-118q-32 16 -53 16q-147 0 -147 -227v-435h182v-104h-182v-809h-123v811h-111zM588 0v1683h127v-1683h-127z" />
</font>
</defs>
</svg>
